# xmcd CD database file
#
# Track frame offsets:
#	150
#	28872
#	57595
#	86317
#	115040
#
# Disc length: 1914 seconds
#
# Revision: 5
# Processed by: cddbd v1.5.1PL0 Copyright (c) Steve Scherf et al.
# Submitted via: CDex 1.51
#
DISCID=38077805
DTITLE=愛内里菜・石田耀子・近江知永・奥井雅美・影山ヒロノブ・can/goo・栗林みな実・下川みくに・JAM Project・鈴木達央・高橋直純・水樹奈々・unicorn table・米倉千尋 - ONENESS
DYEAR=2005
DGENRE=Anime
TTITLE0=ONENESS
TTITLE1=ONENESS(♀Only Vocal Version)
TTITLE2=ONENESS(♂ Only Vocal Version)
TTITLE3=ONENESS( OFF Vocal Version)
TTITLE4=翼 <instrumental>
EXTD=YEAR: 2005
EXTT0=
EXTT1=
EXTT2=
EXTT3=
EXTT4=
PLAYORDER=
